<mxfile host="app.diagrams.net" modified="2023-11-18T07:16:35.989Z" agent="Mozilla/5.0 (Windows NT 10.0; Win64; x64) AppleWebKit/537.36 (KHTML, like Gecko) Chrome/112.0.0.0 Safari/537.36 OPR/98.0.0.0 (Edition Yx GX)" etag="I3RRjv3R_LAYitPl8kv6" version="22.1.3" type="device">
  <diagram name="Page-1" id="lW4-N1X6MtBSxHNb3Pxm">
    <mxGraphModel dx="2840" dy="1109" grid="1" gridSize="10" guides="1" tooltips="1" connect="1" arrows="1" fold="1" page="1" pageScale="1" pageWidth="850" pageHeight="1100" math="0" shadow="0">
      <root>
        <mxCell id="0" />
        <mxCell id="1" parent="0" />
        <mxCell id="2jo1VDIvqPVnc7EeWV3Y-8" value="Управление продажей товаров" style="swimlane;horizontal=0;whiteSpace=wrap;html=1;fontSize=20;startSize=40;movable=0;resizable=0;rotatable=0;deletable=0;editable=0;locked=1;connectable=0;" vertex="1" parent="1">
          <mxGeometry x="-80" y="60" width="1590" height="830" as="geometry" />
        </mxCell>
        <mxCell id="2jo1VDIvqPVnc7EeWV3Y-13" value="&lt;font style=&quot;font-size: 20px;&quot;&gt;Склад&lt;/font&gt;" style="swimlane;horizontal=0;whiteSpace=wrap;html=1;movable=0;resizable=0;rotatable=0;deletable=0;editable=0;locked=1;connectable=0;" vertex="1" parent="2jo1VDIvqPVnc7EeWV3Y-8">
          <mxGeometry x="40" width="1550" height="400" as="geometry" />
        </mxCell>
        <mxCell id="2jo1VDIvqPVnc7EeWV3Y-14" value="&lt;font style=&quot;font-size: 20px;&quot;&gt;Магазин&lt;/font&gt;" style="swimlane;horizontal=0;whiteSpace=wrap;html=1;movable=0;resizable=0;rotatable=0;deletable=0;editable=0;locked=1;connectable=0;" vertex="1" parent="2jo1VDIvqPVnc7EeWV3Y-8">
          <mxGeometry x="40" y="400" width="1550" height="430" as="geometry" />
        </mxCell>
        <mxCell id="2jo1VDIvqPVnc7EeWV3Y-24" value="" style="group" vertex="1" connectable="0" parent="1">
          <mxGeometry x="50" y="120" width="60" height="60" as="geometry" />
        </mxCell>
        <mxCell id="2jo1VDIvqPVnc7EeWV3Y-22" value="" style="ellipse;whiteSpace=wrap;html=1;aspect=fixed;" vertex="1" parent="2jo1VDIvqPVnc7EeWV3Y-24">
          <mxGeometry width="60" height="60" as="geometry" />
        </mxCell>
        <mxCell id="2jo1VDIvqPVnc7EeWV3Y-23" value="" style="shape=message;html=1;html=1;outlineConnect=0;labelPosition=center;verticalLabelPosition=bottom;align=center;verticalAlign=top;" vertex="1" parent="2jo1VDIvqPVnc7EeWV3Y-24">
          <mxGeometry x="15" y="20" width="30" height="20" as="geometry" />
        </mxCell>
        <mxCell id="2jo1VDIvqPVnc7EeWV3Y-30" value="" style="endArrow=block;dashed=1;endFill=0;endSize=12;html=1;rounded=0;entryX=0.5;entryY=1;entryDx=0;entryDy=0;" edge="1" parent="1" target="2jo1VDIvqPVnc7EeWV3Y-22">
          <mxGeometry width="160" relative="1" as="geometry">
            <mxPoint x="-20" y="720" as="sourcePoint" />
            <mxPoint x="60" y="550" as="targetPoint" />
            <Array as="points">
              <mxPoint x="80" y="720" />
            </Array>
          </mxGeometry>
        </mxCell>
        <mxCell id="2jo1VDIvqPVnc7EeWV3Y-31" value="&lt;font style=&quot;font-size: 16px;&quot;&gt;Звявка на получение товара&lt;/font&gt;" style="text;html=1;strokeColor=none;fillColor=none;align=center;verticalAlign=middle;whiteSpace=wrap;rounded=0;" vertex="1" parent="1">
          <mxGeometry x="100" y="220" width="60" height="30" as="geometry" />
        </mxCell>
        <mxCell id="2jo1VDIvqPVnc7EeWV3Y-32" value="" style="endArrow=classic;html=1;rounded=0;" edge="1" parent="1">
          <mxGeometry width="50" height="50" relative="1" as="geometry">
            <mxPoint x="110" y="150" as="sourcePoint" />
            <mxPoint x="280" y="150" as="targetPoint" />
          </mxGeometry>
        </mxCell>
        <mxCell id="2jo1VDIvqPVnc7EeWV3Y-35" style="edgeStyle=orthogonalEdgeStyle;rounded=0;orthogonalLoop=1;jettySize=auto;html=1;exitX=0.5;exitY=1;exitDx=0;exitDy=0;entryX=0;entryY=0;entryDx=0;entryDy=0;" edge="1" parent="1" source="2jo1VDIvqPVnc7EeWV3Y-33" target="2jo1VDIvqPVnc7EeWV3Y-34">
          <mxGeometry relative="1" as="geometry">
            <Array as="points">
              <mxPoint x="340" y="180" />
            </Array>
          </mxGeometry>
        </mxCell>
        <mxCell id="2jo1VDIvqPVnc7EeWV3Y-33" value="&lt;font style=&quot;font-size: 14px;&quot;&gt;Проверить товары на складе и сформировать список&lt;br&gt;&lt;/font&gt;" style="rounded=1;whiteSpace=wrap;html=1;" vertex="1" parent="1">
          <mxGeometry x="280" y="100" width="140" height="80" as="geometry" />
        </mxCell>
        <mxCell id="2jo1VDIvqPVnc7EeWV3Y-37" style="edgeStyle=orthogonalEdgeStyle;rounded=0;orthogonalLoop=1;jettySize=auto;html=1;exitX=1;exitY=1;exitDx=0;exitDy=0;" edge="1" parent="1" source="2jo1VDIvqPVnc7EeWV3Y-34">
          <mxGeometry relative="1" as="geometry">
            <mxPoint x="480" y="596" as="targetPoint" />
            <Array as="points">
              <mxPoint x="340" y="596" />
            </Array>
          </mxGeometry>
        </mxCell>
        <mxCell id="2jo1VDIvqPVnc7EeWV3Y-43" style="edgeStyle=orthogonalEdgeStyle;rounded=0;orthogonalLoop=1;jettySize=auto;html=1;exitX=1;exitY=0.5;exitDx=0;exitDy=0;" edge="1" parent="1" source="2jo1VDIvqPVnc7EeWV3Y-38">
          <mxGeometry relative="1" as="geometry">
            <mxPoint x="680" y="599.5714285714287" as="targetPoint" />
          </mxGeometry>
        </mxCell>
        <mxCell id="2jo1VDIvqPVnc7EeWV3Y-38" value="&lt;font style=&quot;font-size: 16px;&quot;&gt;рвсмотренние &lt;/font&gt;&lt;font style=&quot;font-size: 16px;&quot;&gt;списка&lt;/font&gt;" style="rounded=1;whiteSpace=wrap;html=1;" vertex="1" parent="1">
          <mxGeometry x="480" y="570" width="120" height="60" as="geometry" />
        </mxCell>
        <mxCell id="2jo1VDIvqPVnc7EeWV3Y-42" value="" style="group" vertex="1" connectable="0" parent="1">
          <mxGeometry x="670" y="540" width="110" height="120" as="geometry" />
        </mxCell>
        <mxCell id="2jo1VDIvqPVnc7EeWV3Y-40" value="" style="rhombus;whiteSpace=wrap;html=1;" vertex="1" parent="2jo1VDIvqPVnc7EeWV3Y-42">
          <mxGeometry width="110" height="120" as="geometry" />
        </mxCell>
        <mxCell id="2jo1VDIvqPVnc7EeWV3Y-41" value="" style="shape=umlDestroy;whiteSpace=wrap;html=1;strokeWidth=3;targetShapes=umlLifeline;" vertex="1" parent="2jo1VDIvqPVnc7EeWV3Y-42">
          <mxGeometry x="35" y="40" width="40" height="40" as="geometry" />
        </mxCell>
        <mxCell id="2jo1VDIvqPVnc7EeWV3Y-59" style="edgeStyle=orthogonalEdgeStyle;rounded=0;orthogonalLoop=1;jettySize=auto;html=1;exitX=0;exitY=0.5;exitDx=0;exitDy=0;entryX=1;entryY=0.5;entryDx=0;entryDy=0;" edge="1" parent="1" source="2jo1VDIvqPVnc7EeWV3Y-47" target="2jo1VDIvqPVnc7EeWV3Y-58">
          <mxGeometry relative="1" as="geometry" />
        </mxCell>
        <mxCell id="2jo1VDIvqPVnc7EeWV3Y-47" value="&lt;font style=&quot;font-size: 16px;&quot;&gt;Список не удоволетворяет&lt;/font&gt;" style="rounded=1;whiteSpace=wrap;html=1;" vertex="1" parent="1">
          <mxGeometry x="665" y="320" width="120" height="60" as="geometry" />
        </mxCell>
        <mxCell id="2jo1VDIvqPVnc7EeWV3Y-49" style="edgeStyle=orthogonalEdgeStyle;rounded=0;orthogonalLoop=1;jettySize=auto;html=1;entryX=0.5;entryY=1;entryDx=0;entryDy=0;" edge="1" parent="1" source="2jo1VDIvqPVnc7EeWV3Y-40" target="2jo1VDIvqPVnc7EeWV3Y-47">
          <mxGeometry relative="1" as="geometry" />
        </mxCell>
        <mxCell id="2jo1VDIvqPVnc7EeWV3Y-51" value="" style="group" vertex="1" connectable="0" parent="1">
          <mxGeometry x="283.4314575050762" y="253.4314575050762" width="113.13708498984761" height="113.13708498984761" as="geometry" />
        </mxCell>
        <mxCell id="2jo1VDIvqPVnc7EeWV3Y-34" value="" style="whiteSpace=wrap;html=1;aspect=fixed;rotation=45;" vertex="1" parent="2jo1VDIvqPVnc7EeWV3Y-51">
          <mxGeometry x="16.568542494923804" y="16.568542494923804" width="80" height="80" as="geometry" />
        </mxCell>
        <mxCell id="2jo1VDIvqPVnc7EeWV3Y-50" value="" style="shape=umlDestroy;whiteSpace=wrap;html=1;strokeWidth=3;targetShapes=umlLifeline;" vertex="1" parent="2jo1VDIvqPVnc7EeWV3Y-51">
          <mxGeometry x="41.568542494923804" y="41.568542494923804" width="30" height="30" as="geometry" />
        </mxCell>
        <mxCell id="2jo1VDIvqPVnc7EeWV3Y-52" value="" style="line;strokeWidth=2;html=1;rotation=30;" vertex="1" parent="1">
          <mxGeometry x="322.5" y="380" width="35" height="10" as="geometry" />
        </mxCell>
        <mxCell id="2jo1VDIvqPVnc7EeWV3Y-53" value="&lt;font style=&quot;font-size: 16px;&quot;&gt;Тоавр есть на складе&lt;/font&gt;" style="text;html=1;strokeColor=none;fillColor=none;align=center;verticalAlign=middle;whiteSpace=wrap;rounded=0;" vertex="1" parent="1">
          <mxGeometry x="390" y="370" width="60" height="30" as="geometry" />
        </mxCell>
        <mxCell id="2jo1VDIvqPVnc7EeWV3Y-54" value="&lt;font style=&quot;font-size: 16px;&quot;&gt;Сообщение об отсутствии товара&lt;/font&gt;" style="rounded=1;whiteSpace=wrap;html=1;" vertex="1" parent="1">
          <mxGeometry x="150" y="380" width="120" height="60" as="geometry" />
        </mxCell>
        <mxCell id="2jo1VDIvqPVnc7EeWV3Y-55" style="edgeStyle=orthogonalEdgeStyle;rounded=0;orthogonalLoop=1;jettySize=auto;html=1;exitX=0;exitY=1;exitDx=0;exitDy=0;entryX=0.5;entryY=0;entryDx=0;entryDy=0;" edge="1" parent="1" source="2jo1VDIvqPVnc7EeWV3Y-34" target="2jo1VDIvqPVnc7EeWV3Y-54">
          <mxGeometry relative="1" as="geometry" />
        </mxCell>
        <mxCell id="2jo1VDIvqPVnc7EeWV3Y-56" value="&lt;font style=&quot;font-size: 16px;&quot;&gt;Товара нет на складе&lt;/font&gt;" style="text;html=1;strokeColor=none;fillColor=none;align=center;verticalAlign=middle;whiteSpace=wrap;rounded=0;" vertex="1" parent="1">
          <mxGeometry x="140" y="320" width="60" height="30" as="geometry" />
        </mxCell>
        <mxCell id="2jo1VDIvqPVnc7EeWV3Y-58" value="" style="rhombus;whiteSpace=wrap;html=1;" vertex="1" parent="1">
          <mxGeometry x="300" y="445" width="80" height="80" as="geometry" />
        </mxCell>
        <mxCell id="2jo1VDIvqPVnc7EeWV3Y-62" value="" style="endArrow=block;dashed=1;endFill=0;endSize=12;html=1;rounded=0;exitX=0.417;exitY=1;exitDx=0;exitDy=0;exitPerimeter=0;" edge="1" parent="1" source="2jo1VDIvqPVnc7EeWV3Y-54">
          <mxGeometry width="160" relative="1" as="geometry">
            <mxPoint x="140" y="560" as="sourcePoint" />
            <mxPoint x="-20" y="800" as="targetPoint" />
            <Array as="points">
              <mxPoint x="200" y="800" />
            </Array>
          </mxGeometry>
        </mxCell>
        <mxCell id="2jo1VDIvqPVnc7EeWV3Y-66" style="edgeStyle=orthogonalEdgeStyle;rounded=0;orthogonalLoop=1;jettySize=auto;html=1;exitX=1;exitY=0.5;exitDx=0;exitDy=0;entryX=0;entryY=0.5;entryDx=0;entryDy=0;" edge="1" parent="1" source="2jo1VDIvqPVnc7EeWV3Y-64" target="2jo1VDIvqPVnc7EeWV3Y-65">
          <mxGeometry relative="1" as="geometry" />
        </mxCell>
        <mxCell id="2jo1VDIvqPVnc7EeWV3Y-64" value="&lt;font style=&quot;font-size: 16px;&quot;&gt;Список согласован&lt;/font&gt;" style="rounded=1;whiteSpace=wrap;html=1;" vertex="1" parent="1">
          <mxGeometry x="880" y="330" width="120" height="60" as="geometry" />
        </mxCell>
        <mxCell id="2jo1VDIvqPVnc7EeWV3Y-85" style="edgeStyle=orthogonalEdgeStyle;rounded=0;orthogonalLoop=1;jettySize=auto;html=1;exitX=0.5;exitY=1;exitDx=0;exitDy=0;entryX=0.5;entryY=0;entryDx=0;entryDy=0;" edge="1" parent="1" source="2jo1VDIvqPVnc7EeWV3Y-65">
          <mxGeometry relative="1" as="geometry">
            <mxPoint x="1180.0000000000005" y="600" as="targetPoint" />
          </mxGeometry>
        </mxCell>
        <mxCell id="2jo1VDIvqPVnc7EeWV3Y-65" value="&lt;font style=&quot;font-size: 16px;&quot;&gt;Формирование заказа и отправка&lt;/font&gt;" style="rounded=1;whiteSpace=wrap;html=1;" vertex="1" parent="1">
          <mxGeometry x="1120" y="330" width="120" height="60" as="geometry" />
        </mxCell>
        <mxCell id="2jo1VDIvqPVnc7EeWV3Y-86" style="edgeStyle=orthogonalEdgeStyle;rounded=0;orthogonalLoop=1;jettySize=auto;html=1;exitX=1;exitY=0.5;exitDx=0;exitDy=0;entryX=0;entryY=0.5;entryDx=0;entryDy=0;" edge="1" parent="1" target="2jo1VDIvqPVnc7EeWV3Y-77">
          <mxGeometry relative="1" as="geometry">
            <mxPoint x="1210.0000000000005" y="630" as="sourcePoint" />
          </mxGeometry>
        </mxCell>
        <mxCell id="2jo1VDIvqPVnc7EeWV3Y-71" value="" style="endArrow=none;html=1;rounded=0;" edge="1" parent="1">
          <mxGeometry width="50" height="50" relative="1" as="geometry">
            <mxPoint x="780" y="620" as="sourcePoint" />
            <mxPoint x="800" y="590" as="targetPoint" />
          </mxGeometry>
        </mxCell>
        <mxCell id="2jo1VDIvqPVnc7EeWV3Y-72" value="&lt;font style=&quot;font-size: 16px;&quot;&gt;Список не одобрен&lt;/font&gt;" style="text;html=1;strokeColor=none;fillColor=none;align=center;verticalAlign=middle;whiteSpace=wrap;rounded=0;" vertex="1" parent="1">
          <mxGeometry x="650" y="495" width="60" height="30" as="geometry" />
        </mxCell>
        <mxCell id="2jo1VDIvqPVnc7EeWV3Y-73" value="&lt;font style=&quot;font-size: 16px;&quot;&gt;Список одобрен&lt;/font&gt;" style="text;html=1;strokeColor=none;fillColor=none;align=center;verticalAlign=middle;whiteSpace=wrap;rounded=0;" vertex="1" parent="1">
          <mxGeometry x="770" y="630" width="60" height="30" as="geometry" />
        </mxCell>
        <mxCell id="2jo1VDIvqPVnc7EeWV3Y-74" value="&lt;font style=&quot;font-size: 16px;&quot;&gt;&lt;font style=&quot;font-size: 16px;&quot;&gt;Получен&lt;/font&gt; заказ&lt;/font&gt;" style="text;html=1;strokeColor=none;fillColor=none;align=center;verticalAlign=middle;whiteSpace=wrap;rounded=0;" vertex="1" parent="1">
          <mxGeometry x="1080" y="612.5" width="60" height="30" as="geometry" />
        </mxCell>
        <mxCell id="2jo1VDIvqPVnc7EeWV3Y-87" style="edgeStyle=orthogonalEdgeStyle;rounded=0;orthogonalLoop=1;jettySize=auto;html=1;exitX=1;exitY=0.5;exitDx=0;exitDy=0;" edge="1" parent="1" source="2jo1VDIvqPVnc7EeWV3Y-77">
          <mxGeometry relative="1" as="geometry">
            <mxPoint x="1440" y="631" as="targetPoint" />
          </mxGeometry>
        </mxCell>
        <mxCell id="2jo1VDIvqPVnc7EeWV3Y-77" value="&lt;font style=&quot;font-size: 16px;&quot;&gt;Обработать заказ&lt;/font&gt;" style="rounded=1;whiteSpace=wrap;html=1;" vertex="1" parent="1">
          <mxGeometry x="1280" y="601.25" width="120" height="60" as="geometry" />
        </mxCell>
        <mxCell id="2jo1VDIvqPVnc7EeWV3Y-63" style="edgeStyle=orthogonalEdgeStyle;rounded=0;orthogonalLoop=1;jettySize=auto;html=1;exitX=1;exitY=0.5;exitDx=0;exitDy=0;entryX=0.5;entryY=1;entryDx=0;entryDy=0;" edge="1" parent="1" source="2jo1VDIvqPVnc7EeWV3Y-40" target="2jo1VDIvqPVnc7EeWV3Y-64">
          <mxGeometry relative="1" as="geometry">
            <mxPoint x="900.0000000000005" y="599.5714285714287" as="targetPoint" />
          </mxGeometry>
        </mxCell>
        <mxCell id="2jo1VDIvqPVnc7EeWV3Y-93" value="" style="group" vertex="1" connectable="0" parent="1">
          <mxGeometry x="1140" y="600" width="70" height="70" as="geometry" />
        </mxCell>
        <mxCell id="2jo1VDIvqPVnc7EeWV3Y-88" value="" style="ellipse;shape=doubleEllipse;whiteSpace=wrap;html=1;aspect=fixed;" vertex="1" parent="2jo1VDIvqPVnc7EeWV3Y-93">
          <mxGeometry width="70" height="70" as="geometry" />
        </mxCell>
        <mxCell id="2jo1VDIvqPVnc7EeWV3Y-92" value="" style="shape=message;html=1;html=1;outlineConnect=0;labelPosition=center;verticalLabelPosition=bottom;align=center;verticalAlign=top;" vertex="1" parent="2jo1VDIvqPVnc7EeWV3Y-93">
          <mxGeometry x="10" y="22.5" width="50" height="25" as="geometry" />
        </mxCell>
        <mxCell id="2jo1VDIvqPVnc7EeWV3Y-95" value="" style="strokeWidth=2;html=1;shape=mxgraph.flowchart.start_2;whiteSpace=wrap;" vertex="1" parent="1">
          <mxGeometry x="1440" y="601.25" width="60" height="60" as="geometry" />
        </mxCell>
      </root>
    </mxGraphModel>
  </diagram>
</mxfile>
